<svg xmlns="http://www.w3.org/2000/svg" width="140" height="32" viewBox="0 0 229 52">
  <g fill="none" fill-rule="evenodd">
    <g>
      <g>
        <path fill="#5B5B5B" d="M66.359 49.5963c.293-.102.533-.24.72-.416.187-.176.326-.379.417-.608.09-.23.135-.478.135-.745 0-.266-.045-.514-.135-.744-.091-.229-.23-.432-.417-.608-.187-.176-.427-.315-.72-.416-.294-.102-.638-.152-1.032-.152h-2.161v3.841h2.161c.394 0 .738-.05 1.032-.152zm.128-5.418c.357-.32.536-.753.536-1.297 0-.544-.179-.976-.536-1.296-.357-.32-.857-.48-1.497-.48h-1.824v3.554h1.824c.64 0 1.14-.161 1.497-.481zm-1.721-4.353c.576 0 1.088.071 1.536.215.449.144.826.35 1.129.617.304.266.536.581.697.944.16.362.24.768.24 1.217 0 .416-.059.765-.176 1.048-.118.283-.254.512-.408.688-.155.176-.299.304-.433.384-.134.08-.216.126-.248.137.043.01.163.055.36.135.198.08.409.222.632.424.225.203.427.478.609.824.181.348.272.793.272 1.337 0 .502-.086.952-.257 1.353-.17.4-.416.739-.736 1.016-.319.278-.704.492-1.152.641-.449.149-.95.224-1.504.224h-3.506v-11.204h2.945zM74.8286 51.0367c-.331-.122-.624-.304-.88-.544-.257-.24-.462-.536-.616-.889-.155-.351-.233-.757-.233-1.215v-4.754h1.345v4.529c0 .32.048.593.144.816.096.224.224.411.385.561.16.149.343.259.551.328.208.069.425.104.649.104.48 0 .872-.125 1.176-.376.304-.251.542-.532.712-.84v-5.122h1.345v7.394h-1.249v-1.137c-.085.15-.194.302-.328.457-.133.155-.296.296-.487.424-.193.128-.411.235-.657.321-.246.085-.517.128-.816.128-.363 0-.71-.062-1.041-.185M84.8208 49.2203c.144.139.312.267.504.384.192.117.403.214.632.288.229.075.483.112.76.112.171 0 .35-.015.537-.048.186-.032.357-.088.512-.168.155-.08.283-.181.384-.304.102-.122.152-.275.152-.456 0-.171-.05-.321-.152-.449-.101-.128-.234-.234-.4-.32-.165-.085-.347-.154-.544-.208-.197-.053-.393-.101-.584-.143-.246-.054-.524-.128-.833-.225-.31-.096-.603-.227-.88-.392-.277-.166-.513-.382-.704-.648-.193-.267-.288-.592-.288-.977 0-.299.063-.584.191-.856s.313-.51.553-.712c.24-.203.525-.363.856-.481.33-.117.704-.175 1.12-.175.63 0 1.177.117 1.641.351.464.236.83.491 1.097.769l-.881.912c-.192-.192-.443-.376-.752-.552-.31-.176-.689-.264-1.137-.264-.448 0-.789.099-1.024.296-.235.198-.352.419-.352.664 0 .171.051.315.152.433.101.117.238.216.408.296.171.08.363.149.576.208.214.059.433.114.656.168.279.063.569.143.873.24.304.096.584.23.84.401.256.169.47.386.641.647.171.262.256.585.256.969s-.085.718-.256 1c-.171.283-.393.515-.664.696-.273.182-.585.317-.937.408-.352.091-.704.137-1.057.137-.373 0-.722-.046-1.048-.137-.326-.091-.621-.21-.888-.359-.267-.15-.507-.316-.721-.497-.213-.181-.389-.368-.528-.56l.929-.864c.095.139.215.277.36.416M94.092 51.0292h1.345v-7.395h-1.345v7.395zm.033-10.405c.18-.181.394-.272.639-.272.246 0 .459.091.641.272.181.182.272.395.272.641 0 .245-.091.459-.272.64-.182.181-.395.272-.641.272-.245 0-.459-.091-.639-.272-.182-.181-.273-.395-.273-.64 0-.246.091-.459.273-.641zM104.8697 43.6256c.336.123.632.305.889.545.256.239.458.536.607.888.15.352.225.757.225 1.216v4.754h-1.345v-4.53c0-.319-.048-.592-.144-.815-.096-.225-.221-.412-.377-.561-.154-.149-.335-.259-.543-.328-.208-.069-.424-.105-.649-.105-.245 0-.467.039-.664.113-.197.075-.373.174-.528.296-.155.123-.291.258-.409.408-.117.149-.218.294-.303.432v5.09h-1.345v-7.394h1.248v1.04c.192-.31.478-.593.857-.849.378-.256.856-.384 1.432-.384.363 0 .713.062 1.049.184M116.503 46.0347c-.102-.234-.246-.453-.433-.656-.186-.203-.421-.368-.704-.496s-.616-.193-1.001-.193c-.395 0-.734.07-1.016.208-.283.139-.517.308-.705.505-.186.197-.33.413-.432.649-.101.234-.163.447-.184.639h4.643c-.011-.202-.067-.421-.168-.656m-.688-2.313c.442.187.824.451 1.144.792.319.342.57.755.752 1.241.182.485.272 1.027.272 1.625v.208c0 .064-.005.138-.016.223h-5.97c.02.279.1.548.239.809.139.262.32.494.545.696.223.203.485.364.784.481.299.117.625.176.977.176.512 0 .957-.113 1.336-.336.379-.224.675-.475.889-.752l.848.879c-.16.182-.344.361-.552.537-.208.176-.443.334-.705.472-.261.139-.546.248-.856.328-.31.08-.645.121-1.009.121-.544 0-1.051-.099-1.521-.297-.469-.198-.872-.472-1.208-.825-.336-.351-.6-.767-.792-1.248-.192-.48-.288-.998-.288-1.552 0-.523.088-1.02.264-1.489.176-.469.424-.88.744-1.232.32-.353.707-.63 1.16-.833.454-.202.958-.304 1.513-.304.524 0 1.006.093 1.45.28M122.8848 49.2203c.144.139.312.267.504.384.192.117.403.214.632.288.229.075.483.112.76.112.171 0 .35-.015.537-.048.186-.032.357-.088.512-.168.155-.08.283-.181.384-.304.102-.122.152-.275.152-.456 0-.171-.05-.321-.152-.449-.101-.128-.234-.234-.4-.32-.165-.085-.347-.154-.544-.208-.197-.053-.393-.101-.584-.143-.246-.054-.524-.128-.833-.225-.31-.096-.603-.227-.88-.392-.277-.166-.513-.382-.704-.648-.193-.267-.288-.592-.288-.977 0-.299.063-.584.191-.856s.313-.51.553-.712c.24-.203.525-.363.856-.481.33-.117.704-.175 1.12-.175.63 0 1.177.117 1.641.351.464.236.83.491 1.097.769l-.881.912c-.192-.192-.443-.376-.752-.552-.31-.176-.689-.264-1.137-.264-.448 0-.789.099-1.024.296-.235.198-.352.419-.352.664 0 .171.051.315.152.433.101.117.238.216.408.296.171.08.363.149.576.208.214.059.433.114.656.168.279.063.569.143.873.24.304.096.584.23.84.401.256.169.47.386.641.647.171.262.256.585.256.969s-.085.718-.256 1c-.171.283-.393.515-.664.696-.273.182-.585.317-.937.408-.352.091-.704.137-1.057.137-.373 0-.722-.046-1.048-.137-.326-.091-.621-.21-.888-.359-.267-.15-.507-.316-.721-.497-.213-.181-.389-.368-.528-.56l.929-.864c.095.139.215.277.36.416M132.7246 49.2203c.144.139.312.267.504.384.192.117.403.214.632.288.229.075.483.112.76.112.171 0 .35-.015.537-.048.186-.032.357-.088.512-.168.155-.08.283-.181.384-.304.102-.122.152-.275.152-.456 0-.171-.05-.321-.152-.449-.101-.128-.234-.234-.4-.32-.165-.085-.347-.154-.544-.208-.197-.053-.393-.101-.584-.143-.246-.054-.524-.128-.833-.225-.31-.096-.603-.227-.88-.392-.277-.166-.513-.382-.704-.648-.193-.267-.288-.592-.288-.977 0-.299.063-.584.191-.856s.313-.51.553-.712c.24-.203.525-.363.856-.481.33-.117.704-.175 1.12-.175.63 0 1.177.117 1.641.351.464.236.83.491 1.097.769l-.881.912c-.192-.192-.443-.376-.752-.552-.31-.176-.689-.264-1.137-.264-.448 0-.789.099-1.024.296-.235.198-.352.419-.352.664 0 .171.051.315.152.433.101.117.238.216.408.296.171.08.363.149.576.208.214.059.433.114.656.168.279.063.569.143.873.24.304.096.584.23.84.401.256.169.47.386.641.647.171.262.256.585.256.969s-.085.718-.256 1c-.171.283-.393.515-.664.696-.273.182-.585.317-.937.408-.352.091-.704.137-1.057.137-.373 0-.722-.046-1.048-.137-.326-.091-.621-.21-.888-.359-.267-.15-.507-.316-.721-.497-.213-.181-.389-.368-.528-.56l.929-.864c.095.139.215.277.36.416M154.0703 47.4195c-.112-.208-.265-.395-.456-.561-.192-.165-.422-.314-.689-.448l-.864-.424c-.363-.171-.728-.352-1.096-.544-.369-.192-.7-.416-.993-.672-.294-.256-.531-.552-.713-.888-.18-.337-.271-.729-.271-1.177 0-.374.069-.744.208-1.112.139-.368.341-.696.608-.985.267-.288.6-.523 1-.704.401-.181.868-.272 1.401-.272.395 0 .761.051 1.096.152.336.101.638.232.905.392.266.16.502.336.704.528.203.193.368.379.496.561l-1.008.816c-.097-.139-.217-.277-.36-.417-.145-.139-.31-.264-.496-.376-.187-.111-.393-.202-.617-.271-.224-.07-.464-.105-.72-.105-.31 0-.579.048-.809.145-.228.095-.424.223-.584.383-.16.161-.28.344-.36.552-.08.209-.119.419-.119.633 0 .267.058.499.175.696.118.198.283.382.497.552.212.171.474.337.784.497.309.159.656.325 1.04.496.428.192.814.392 1.161.6.347.208.64.435.88.681.24.245.425.522.553.832.127.309.191.672.191 1.088 0 .491-.088.931-.264 1.321-.176.389-.419.72-.728.992-.31.272-.675.48-1.097.624-.421.144-.872.217-1.352.217-.48 0-.913-.068-1.296-.2-.385-.134-.726-.31-1.025-.529-.299-.219-.554-.469-.768-.752-.214-.283-.384-.568-.512-.856l1.12-.673c.096.225.222.44.376.648.155.208.334.393.536.553.203.159.435.288.696.384.262.096.547.144.857.144.267 0 .525-.038.776-.112.251-.075.472-.187.664-.337.193-.148.347-.333.465-.551.117-.219.176-.478.176-.777 0-.288-.057-.536-.168-.744M164.341 49.7642c.305-.139.563-.328.776-.568.214-.241.379-.52.496-.84.119-.321.177-.662.177-1.025 0-.363-.058-.704-.177-1.024-.117-.32-.282-.601-.496-.841-.213-.24-.471-.43-.776-.568-.304-.139-.643-.208-1.017-.208-.373 0-.712.069-1.015.208-.305.138-.564.328-.777.568-.213.24-.379.521-.496.841-.118.32-.176.661-.176 1.024s.058.704.176 1.025c.117.32.283.599.496.84.213.24.472.429.777.568.303.139.642.208 1.015.208.374 0 .713-.069 1.017-.208m.496-6.019c.465.204.867.478 1.209.825.342.347.608.757.8 1.232.192.476.288.984.288 1.529 0 .544-.096 1.054-.288 1.529-.192.474-.458.885-.8 1.232s-.744.622-1.209.824c-.464.203-.968.305-1.513.305-.544 0-1.047-.102-1.511-.305-.465-.202-.868-.477-1.209-.824-.342-.347-.609-.758-.8-1.232-.192-.475-.289-.985-.289-1.529 0-.545.097-1.053.289-1.529.191-.475.458-.885.8-1.232.341-.347.744-.621 1.209-.825.464-.202.967-.303 1.511-.303.545 0 1.049.101 1.513.303M172.0596 43.6344v-2.546c0-.394.069-.738.208-1.032.139-.293.317-.539.536-.736.219-.198.468-.344.745-.44.278-.097.555-.144.832-.144.182 0 .398.026.649.08.251.053.536.171.856.352l-.496 1.105c-.32-.193-.625-.289-.913-.289-.33 0-.592.107-.784.32-.193.214-.288.502-.288.864v2.466h1.921v1.216h-1.921v6.179h-1.345v-6.179h-1.536v-1.216h1.536zM180.0762 43.6344v-2.258h1.344v2.258h2.305v1.216h-2.305v3.985c0 .363.091.644.272.841.182.197.433.296.752.296.182 0 .342-.029.481-.088.138-.059.277-.131.416-.216l.496 1.105c-.32.181-.6.3-.84.36-.24.059-.462.088-.664.088-.278 0-.55-.046-.817-.137-.266-.091-.506-.229-.72-.416-.213-.186-.387-.427-.521-.72-.133-.293-.199-.643-.199-1.048v-4.05h-1.441v-1.216h1.441zM190.3955 48.4195l1.953-4.785h.912l1.969 4.785 1.969-4.785h1.377l-3.378 7.715-2.433-5.555-2.432 5.555-3.378-7.715h1.457M206.245 49.6685c.357-.246.638-.496.84-.753v-1.04c-.213-.149-.49-.274-.832-.376-.342-.102-.704-.152-1.089-.152-.598 0-1.062.128-1.393.384-.33.256-.496.587-.496.993 0 .223.048.419.145.584.096.165.223.301.384.408.16.106.338.186.536.24.197.053.403.08.616.08.502 0 .932-.123 1.289-.368m.392-5.995c.405.155.739.36 1.001.617.26.256.459.547.591.872.134.325.201.659.201 1v4.866h-1.233v-1.072c-.277.384-.638.691-1.08.92-.443.229-.915.345-1.417.345-.342 0-.675-.057-1-.168-.326-.113-.622-.276-.889-.489-.266-.213-.48-.475-.64-.784-.16-.309-.24-.662-.24-1.056 0-.374.075-.713.224-1.017.15-.304.355-.565.616-.784.262-.219.574-.39.937-.513.362-.122.752-.183 1.168-.183.47 0 .896.063 1.281.192.384.128.693.267.928.416v-.4c0-.384-.069-.692-.208-.921-.139-.23-.307-.406-.504-.528-.197-.123-.405-.203-.624-.24-.219-.038-.403-.057-.553-.057-.342 0-.707.059-1.097.177-.389.117-.754.267-1.095.448l-.561-1.121c.31-.181.704-.351 1.185-.511.48-.16 1.008-.241 1.584-.241.545 0 1.019.078 1.425.232M216.8848 43.4898c.187.032.365.08.536.145l-.496 1.215c-.117-.052-.254-.092-.408-.12-.154-.026-.291-.04-.408-.04-.235 0-.443.04-.624.12-.182.08-.345.179-.489.296-.144.118-.266.251-.368.401-.101.149-.184.294-.248.432v5.09h-1.345v-7.394h1.248v1.135c.097-.171.211-.336.345-.496.133-.16.285-.302.456-.424.171-.123.364-.221.576-.296.214-.075.449-.112.704-.112.161 0 .334.016.521.048M226.341 46.0347c-.101-.234-.245-.453-.432-.656-.186-.203-.422-.368-.704-.496-.283-.128-.616-.193-1.001-.193-.394 0-.733.07-1.015.208-.284.139-.518.308-.705.505-.187.197-.33.413-.432.649-.102.234-.163.447-.185.639h4.643c-.011-.202-.067-.421-.169-.656m-.687-2.313c.442.187.824.451 1.144.792.319.342.57.755.752 1.241.182.485.272 1.027.272 1.625v.208c0 .064-.005.138-.016.223h-5.97c.021.279.101.548.239.809.139.262.321.494.545.696.224.203.486.364.784.481.299.117.624.176.977.176.512 0 .957-.113 1.336-.336.379-.224.675-.475.889-.752l.848.879c-.16.182-.344.361-.552.537-.208.176-.443.334-.705.472-.261.139-.546.248-.856.328-.31.08-.646.121-1.009.121-.544 0-1.051-.099-1.52-.297-.469-.198-.872-.472-1.208-.825-.336-.351-.601-.767-.792-1.248-.193-.48-.289-.998-.289-1.552 0-.523.089-1.02.264-1.489.176-.469.424-.88.744-1.232.321-.353.707-.63 1.161-.833.454-.202.958-.304 1.512-.304.524 0 1.006.093 1.45.28"/>
        <path fill="#DE323C" d="M13.8663 12.735c-.825-.825-2.156-.825-2.982-.003-.821.824-.821 2.158 0 2.981.826.826 2.159.826 2.984 0 .825-.823.825-2.157-.002-2.978M19.555 18.2808c-.821-.825-2.157-.825-2.981 0-.821.824-.821 2.157 0 2.978.824.824 2.16.824 2.981 0 .822-.821.822-2.154 0-2.978M19.8027 6.6987c-1.002-.998-2.616-.998-3.619 0-1.001 1-1.001 2.621 0 3.62 1.003.998 2.622.998 3.619 0 1.002-.999 1.002-2.62 0-3.62M25.4936 12.3194c-1.002-1.001-2.622-1.001-3.618 0-1.003 1.001-1.003 2.621-.003 3.62.999.999 2.622.999 3.621-.002 1.001-.999 1.001-2.617 0-3.618M31.1108 17.9376c-1-1-2.619-1-3.616-.002-1.004 1.005-1.004 2.623 0 3.619.997 1.004 2.616 1.004 3.616 0 1-.996 1-2.617 0-3.617M38.4455 28.8995c-1.177 1.177-1.179 3.079 0 4.259 1.175 1.179 3.082 1.179 4.255 0 1.179-1.177 1.179-3.083 0-4.261-1.171-1.175-3.08-1.175-4.255.002M32.7954 34.5536c-1.179 1.176-1.181 3.081-.003 4.258 1.178 1.176 3.084 1.176 4.258 0 1.177-1.177 1.177-3.082 0-4.258-1.174-1.177-3.08-1.177-4.255 0M27.1703 40.173c-1.176 1.176-1.176 3.083 0 4.26 1.179 1.177 3.082 1.177 4.257 0 1.182-1.177 1.182-3.084 0-4.26-1.174-1.178-3.078-1.178-4.257 0M21.5212 45.8278c-1.179 1.172-1.179 3.081-.003 4.257 1.178 1.177 3.083 1.177 4.259 0 1.18-1.176 1.18-3.085 0-4.257-1.176-1.18-3.081-1.18-4.256 0M48.302 23.3566c-1.176-1.176-3.082-1.176-4.256 0-1.176 1.178-1.178 3.085 0 4.259 1.174 1.175 3.082 1.177 4.256 0 1.177-1.177 1.177-3.081 0-4.259M42.6848 17.8105c-1.181-1.176-3.084-1.181-4.26-.002-1.179 1.179-1.179 3.082 0 4.26 1.175 1.174 3.08 1.174 4.26 0 1.172-1.175 1.172-3.081 0-4.258M37.0314 12.154c-1.179-1.174-3.083-1.174-4.26 0-1.179 1.18-1.179 3.085 0 4.263 1.177 1.174 3.081 1.174 4.261 0 1.177-1.178 1.177-3.083-.001-4.263M31.4108 6.5375c-1.177-1.176-3.082-1.176-4.26 0-1.174 1.174-1.174 3.083 0 4.259 1.178 1.178 3.085 1.178 4.26 0 1.178-1.176 1.178-3.085 0-4.259M25.756.884c-1.174-1.177-3.082-1.18-4.259 0-1.173 1.178-1.173 3.082 0 4.256 1.177 1.178 3.085 1.178 4.259 0 1.178-1.174 1.178-3.078 0-4.256M16.1824 40.5508c-1 1.002-1 2.622 0 3.619 1.002 1.001 2.621 1.001 3.62 0 1.002-.997 1.002-2.617 0-3.619-1.002-.998-2.618-.998-3.62 0M10.9548 35.1954c-.824.822-.824 2.155 0 2.978.825.826 2.159.826 2.983.005.826-.828.826-2.164 0-2.985-.824-.825-2.159-.825-2.983.002M16.5038 29.5072c-.825.822-.825 2.156 0 2.978.821.825 2.156.825 2.981 0 .824-.822.824-2.157 0-2.978-.825-.825-2.16-.825-2.981 0M22.155 23.9213c-.82.827-.82 2.16 0 2.982.829.823 2.162.823 2.985 0 .822-.822.822-2.157 0-2.982-.823-.825-2.156-.825-2.985 0M11.2763 24.1274c-.647.648-.647 1.694 0 2.342.643.647 1.696.647 2.343 0 .642-.648.642-1.694 0-2.344-.647-.645-1.7-.645-2.343.002M5.551 29.71c-.649.647-.649 1.693 0 2.345.644.646 1.696.646 2.342 0 .646-.652.646-1.698 0-2.345-.646-.646-1.696-.646-2.342 0M6.0226 18.8226c-.646.65-.649 1.697 0 2.34.649.65 1.695.65 2.342 0 .648-.643.648-1.69 0-2.34-.647-.646-1.693-.646-2.342 0M.4304 24.3494c-.574.575-.574 1.505-.001 2.079.575.573 1.504.573 2.075 0 .575-.574.575-1.504 0-2.079-.571-.573-1.5-.573-2.074 0M21.8018 34.863c-1 1.002-1 2.622 0 3.62 1.003 1.002 2.622 1.002 3.62 0 1.002-.998 1.002-2.622-.002-3.62-.998-1.001-2.618-1.001-3.618 0M27.4178 29.2437c-.996 1.003-.996 2.621 0 3.62 1.004 1.002 2.623 1.002 3.621 0 1.003-.999 1.003-2.617 0-3.62-.998-.998-2.617-.998-3.621 0M33.11 23.627c-1 1.001-1 2.617 0 3.619 1.002 1.001 2.621 1 3.619 0 1.001-1.002 1.001-2.618 0-3.619-.998-1.001-2.617-1.001-3.619 0"/>
        <path fill="#282828" d="M166.629 29.589c1.142-.624 2.041-1.323 2.7-2.1l2.823 2.788c-.446.541-.988 1.059-1.624 1.553-.634.494-1.352.942-2.152 1.342-.8.399-1.682.717-2.646.953-.965.235-1.989.352-3.072.352-1.788 0-3.446-.323-4.975-.97-1.53-.647-2.854-1.542-3.971-2.683-1.118-1.141-1.994-2.488-2.63-4.041-.636-1.552-.952-3.247-.952-5.082s.316-3.529.952-5.082c.636-1.553 1.512-2.9 2.63-4.041 1.117-1.141 2.441-2.035 3.971-2.683 1.529-.647 3.175-.97 4.94-.97 1.107 0 2.13.118 3.071.353.941.235 1.799.541 2.577.917.775.377 1.459.794 2.046 1.253.588.459 1.083.912 1.483 1.359l-2.859 2.788c-.588-.658-1.418-1.276-2.489-1.853-1.07-.576-2.335-.864-3.794-.864-1.223 0-2.341.235-3.352.706-1.012.47-1.877 1.111-2.594 1.923-.719.812-1.277 1.747-1.677 2.806-.4 1.059-.6 2.188-.6 3.388 0 1.2.2 2.329.6 3.388.4 1.059.964 1.994 1.695 2.806.728.812 1.599 1.453 2.611 1.923 1.012.471 2.129.707 3.353.707 1.483 0 2.793-.312 3.935-.936M224.0616 26.1482c-.223-.353-.535-.67-.935-.953-.399-.282-.876-.535-1.428-.759-.554-.223-1.16-.453-1.819-.688-.894-.329-1.799-.706-2.716-1.129-.918-.424-1.748-.936-2.489-1.535-.742-.601-1.347-1.301-1.818-2.101-.471-.799-.705-1.752-.705-2.858 0-.941.187-1.848.564-2.718.376-.87.911-1.635 1.606-2.294.693-.659 1.535-1.188 2.523-1.588.988-.4 2.094-.6 3.319-.6.963 0 1.857.118 2.681.353.823.235 1.576.541 2.258.917.684.377 1.289.8 1.818 1.271.53.471.983.929 1.36 1.376l-2.93 2.894c-.283-.353-.6-.693-.953-1.023-.354-.33-.753-.624-1.199-.882-.448-.259-.918-.471-1.412-.636-.495-.165-1.024-.247-1.588-.247-1.06 0-1.948.283-2.665.847-.718.565-1.077 1.294-1.077 2.188 0 .565.153 1.047.459 1.448.306.4.711.746 1.217 1.041.506.294 1.077.558 1.712.794l1.942.741c.918.353 1.794.735 2.629 1.147.835.411 1.57.9 2.205 1.465.636.564 1.142 1.235 1.519 2.011.375.777.565 1.694.565 2.753 0 1.177-.231 2.212-.69 3.106-.459.894-1.076 1.636-1.851 2.223-.778.589-1.672 1.03-2.684 1.324-1.012.294-2.082.441-3.211.441-1.177 0-2.242-.147-3.194-.441-.953-.294-1.812-.677-2.577-1.147-.764-.47-1.429-1.012-1.995-1.623-.564-.612-1.046-1.224-1.446-1.836l3.177-2.682c.281.447.617.888 1.006 1.323.387.436.829.83 1.323 1.183.494.353 1.047.641 1.659.865.611.223 1.293.335 2.047.335.494 0 .982-.053 1.465-.159.482-.106.923-.276 1.323-.512.4-.235.724-.547.97-.935.248-.388.371-.853.371-1.394 0-.518-.111-.953-.336-1.306M66.4114 34.054l7.235-15.811 7.289 15.811h4.328L73.6324 8.823l-11.545 25.231M200.9782 9.3484v15.741c0 1.364-.224 2.617-.671 3.759-.446 1.141-1.082 2.129-1.905 2.964-.824.836-1.824 1.489-3 1.959-1.177.471-2.494.706-3.953.706-1.459 0-2.777-.235-3.953-.706-1.176-.47-2.176-1.123-3-1.959-.824-.835-1.459-1.823-1.907-2.964-.446-1.142-.67-2.395-.67-3.759V9.3484h4.236v15.211c0 1.765.44 3.189 1.323 4.271.883 1.082 2.206 1.623 3.971 1.623 1.764 0 3.088-.541 3.97-1.623.882-1.082 1.324-2.506 1.324-4.271V9.3484h4.235zM123.7108 34.054l7.235-15.811 7.289 15.811h4.328l-11.631-25.231-11.545 25.231M106.3062 29.2718c-.776.506-1.753.759-2.929.759h-4.518v-16.659h3.635c1.059 0 1.941.235 2.647.706.706.471 1.059 1.271 1.059 2.4 0 1.059-.323 1.817-.971 2.276-.647.459-1.558.689-2.735.689l.883 4.023c1.176 0 2.153.253 2.929.759.776.506 1.165 1.347 1.165 2.524 0 1.176-.389 2.017-1.165 2.523m4.923-5.276c-.364-.73-.776-1.318-1.235-1.765-.459-.447-.894-.765-1.306-.953-.411-.188-.664-.294-.758-.318.141-.07.353-.206.635-.406.282-.199.57-.488.865-.864.293-.376.546-.859.758-1.447.212-.589.318-1.306.318-2.153 0-1.177-.223-2.189-.671-3.035-.447-.847-1.035-1.548-1.764-2.1-.73-.554-1.565-.959-2.506-1.218-.941-.259-1.918-.388-2.929-.388h-8.012v24.705h8.894c1.153 0 2.235-.176 3.247-.529 1.012-.353 1.888-.847 2.629-1.482.741-.636 1.324-1.406 1.747-2.312.424-.906.635-1.912.635-3.018 0-1.082-.182-1.988-.547-2.717"/>
      </g>
    </g>
  </g>
</svg>